<svg width="16" height="16" fill="none" xmlns="http://www.w3.org/2000/svg"><path fill-rule="evenodd" clip-rule="evenodd" d="M7.45.033a.109.109 0 01.166.092v12.923a1.129 1.129 0 00.492.932l.943.644a.847.847 0 01.37.7v.425a.218.218 0 01-.114.19.216.216 0 01-.22-.008L5.044 13.34a1.095 1.095 0 01-.504-.922V3.435a.217.217 0 00-.332-.185l-.875.545A.217.217 0 013 3.61v-.356a.81.81 0 01.382-.688L7.45.033zM14 3.611a.217.217 0 01-.332.185l-.875-.545a.217.217 0 00-.332.185v10.21a1.047 1.047 0 00.521.905l.131.077a.784.784 0 01.39.68v.44a.218.218 0 01-.332.186l-3.276-2.019A1.075 1.075 0 019.384 13V.126c0-.04.021-.077.056-.096a.109.109 0 01.11.003l4.068 2.533a.81.81 0 01.382.688v.357z" fill="#000"/></svg>