<?xml version="1.0" encoding="utf-8"?>
<svg viewBox="0 0 28 25" xmlns="http://www.w3.org/2000/svg" xmlns:xlink="http://www.w3.org/1999/xlink">
	<style>
		:root>svg{display:none}:root>svg:target{display:block}
	</style>
	<svg viewBox="0 0 28 25" id="logo" xmlns="http://www.w3.org/2000/svg">
		<path fill="black" d="M26.334 3.372l.564 1.141a4.178 4.178 0 01-1.433 5.325l-2.23 1.485a4.178 4.178 0 01-4.862-.165l-2.084-1.603a.38.38 0 00-.284-.075c-.567.079-1.522.623-2.77 1.65-.922.758-1.561 1.416-1.913 1.945a3.104 3.104 0 00-.241.427l-.06.143.022.062 1.228 2.47a4.178 4.178 0 01-.77 4.801l-1.877 1.893a4.178 4.178 0 01-5.488.394l-1.018-.77a5.697 5.697 0 01-2.199-5.373c.566-3.856 3.194-7.668 7.811-11.467C13.356 1.849 17.608.006 21.506.199a5.697 5.697 0 014.667 2.869l.161.304zm-2.169.773a3.418 3.418 0 00-2.772-1.671c-3.245-.16-6.99 1.463-11.215 4.94-4.221 3.473-6.533 6.83-7.007 10.039a3.418 3.418 0 001.32 3.222l1.019.77a1.899 1.899 0 002.494-.177l1.877-1.894a1.899 1.899 0 00.35-2.18L8.97 14.65l-.081-.2c-.523-1.535.544-3.144 2.897-5.08 1.546-1.272 2.815-1.994 3.9-2.146.707-.1 1.426.09 1.992.525l2.083 1.6a1.9 1.9 0 002.21.077l2.23-1.485a1.899 1.899 0 00.65-2.42L24.29 4.38l-.125-.234z" />
	</svg>
</svg>
