<?xml version="1.0" encoding="utf-8"?><svg viewBox="0 0 314 46" xmlns="http://www.w3.org/2000/svg" xmlns:xlink="http://www.w3.org/1999/xlink"><style>:root>svg{display:none}:root>svg:target{display:block}</style><svg viewBox="0 0 24 26" fill="none" id="arrow" xmlns="http://www.w3.org/2000/svg"><path d="M2 16l10 8 10-8M12 2v20"/></svg><svg viewBox="0 0 314 46" id="logo" xmlns="http://www.w3.org/2000/svg"><path d="M42.548 34.567v-16.8h7.824c1.952 0 3.472.376 4.56 1.128 1.088.752 1.632 1.824 1.632 3.216 0 1.376-.512 2.448-1.536 3.216-1.024.752-2.384 1.128-4.08 1.128l.456-1.008c1.888 0 3.352.376 4.392 1.128 1.04.752 1.56 1.84 1.56 3.264 0 1.472-.56 2.632-1.68 3.48-1.104.832-2.72 1.248-4.848 1.248h-8.28zm3.864-2.88h4.272c.896 0 1.576-.176 2.04-.528.464-.352.696-.896.696-1.632 0-.704-.232-1.224-.696-1.56-.464-.352-1.144-.528-2.04-.528h-4.272v4.248zm0-6.96h3.624c.848 0 1.488-.168 1.92-.504.432-.352.648-.864.648-1.536s-.216-1.176-.648-1.512c-.432-.352-1.072-.528-1.92-.528h-3.624v4.08zM64.487 24.535h8.088v3.024h-8.088v-3.024zm.288 6.912h9.144v3.12H60.91v-16.8h12.696v3.12h-8.832v10.56zM77.54 34.567v-16.8h11.855l-.024 3.168h-8.88l.888-.888.024 14.52H77.54zM87.092 34.567l9.116-17h.464l9.26 17h-4.08l-5.892-11h1l-5.884 11h-3.984zm3.744-2.184l1.032-2.952h8.64l1.056 2.952H90.836zM108.64 34.567v-16.8h15.312v16.8h-3.864v-14.52l.888.888h-9.36l.888-.888v14.52h-3.864zM128.596 34.567v-16.8h7.272c1.504 0 2.8.248 3.888.744 1.088.48 1.928 1.176 2.52 2.088.592.912.888 2 .888 3.264 0 1.248-.296 2.328-.888 3.24-.592.912-1.432 1.616-2.52 2.112-1.088.48-2.384.72-3.888.72h-5.112l1.728-1.752v6.384h-3.888zm3.888-5.952l-1.728-1.848h4.896c1.2 0 2.096-.256 2.688-.768.592-.512.888-1.224.888-2.136 0-.928-.296-1.648-.888-2.16-.592-.512-1.488-.768-2.688-.768h-4.896l1.728-1.848v9.528zM154.483 34.855c-1.328 0-2.56-.216-3.696-.648a8.878 8.878 0 01-2.928-1.824 8.564 8.564 0 01-1.92-2.76c-.448-1.056-.672-2.208-.672-3.456 0-1.248.224-2.4.672-3.456a8.39 8.39 0 011.944-2.76 8.878 8.878 0 012.928-1.824c1.12-.432 2.336-.648 3.648-.648 1.328 0 2.544.216 3.648.648a8.61 8.61 0 012.904 1.824 8.39 8.39 0 011.944 2.76c.464 1.04.696 2.192.696 3.456 0 1.248-.232 2.408-.696 3.48a8.39 8.39 0 01-1.944 2.76c-.816.768-1.784 1.368-2.904 1.8-1.104.432-2.312.648-3.624.648zm-.024-3.312c.752 0 1.44-.128 2.064-.384a4.897 4.897 0 002.784-2.808c.272-.656.408-1.384.408-2.184 0-.8-.136-1.528-.408-2.184a4.897 4.897 0 00-1.104-1.704 4.702 4.702 0 00-1.656-1.104 5.571 5.571 0 00-2.088-.384c-.752 0-1.448.128-2.088.384a5.009 5.009 0 00-1.656 1.104 5.194 5.194 0 00-1.128 1.704c-.256.656-.384 1.384-.384 2.184 0 .784.128 1.512.384 2.184.272.656.64 1.224 1.104 1.704.48.48 1.04.848 1.68 1.104.64.256 1.336.384 2.088.384zM167.127 34.567v-16.8l10.833 11.3h-2.468l10.547-11.3.024 16.8h-3.648l.045-10 1.079 1.288-6.831 7.19-7.405-8.153 1.472-1.533v11.208h-3.648zM190.716 34.567v-16.8h15.312v16.8h-3.864v-14.52l.888.888h-9.36l.888-.888v14.52h-3.864zM210.673 34.567v-16.8h7.272c1.504 0 2.8.248 3.888.744 1.088.48 1.928 1.176 2.52 2.088.592.912.888 2 .888 3.264 0 1.248-.296 2.328-.888 3.24-.592.912-1.432 1.616-2.52 2.112-1.088.48-2.384.72-3.888.72h-5.112l1.728-1.752v6.384h-3.888zm3.888-5.952l-1.728-1.848h4.896c1.2 0 2.096-.256 2.688-.768.592-.512.888-1.224.888-2.136 0-.928-.296-1.648-.888-2.16-.592-.512-1.488-.768-2.688-.768h-4.896l1.728-1.848v9.528zM236.56 34.855c-1.328 0-2.56-.216-3.696-.648a8.878 8.878 0 01-2.928-1.824 8.564 8.564 0 01-1.92-2.76c-.448-1.056-.672-2.208-.672-3.456 0-1.248.224-2.4.672-3.456a8.39 8.39 0 011.944-2.76 8.878 8.878 0 012.928-1.824c1.12-.432 2.336-.648 3.648-.648 1.328 0 2.544.216 3.648.648a8.61 8.61 0 012.904 1.824 8.39 8.39 0 011.944 2.76c.464 1.04.696 2.192.696 3.456 0 1.248-.232 2.408-.696 3.48a8.39 8.39 0 01-1.944 2.76c-.816.768-1.784 1.368-2.904 1.8-1.104.432-2.312.648-3.624.648zm-.024-3.312c.752 0 1.44-.128 2.064-.384a4.897 4.897 0 002.784-2.808c.272-.656.408-1.384.408-2.184 0-.8-.136-1.528-.408-2.184a4.897 4.897 0 00-1.104-1.704 4.702 4.702 0 00-1.656-1.104 5.571 5.571 0 00-2.088-.384c-.752 0-1.448.128-2.088.384a5.009 5.009 0 00-1.656 1.104 5.194 5.194 0 00-1.128 1.704c-.256.656-.384 1.384-.384 2.184 0 .784.128 1.512.384 2.184.272.656.64 1.224 1.104 1.704.48.48 1.04.848 1.68 1.104.64.256 1.336.384 2.088.384zM252.779 24.535h8.088v3.024h-8.088v-3.024zm.288 6.912h9.144v3.12h-13.008v-16.8h12.696v3.12h-8.832v10.56zM280.951 41.782l-9.48-15.303 3.069-1.92 10.505 17.223h-4.094zm-15.168-7.215v-16.8h3.864v16.8h-3.864zm2.736-6.768v-3.24h5.856v3.24h-5.856zm6.456-1.2l-3.576-.432 5.448-8.4h4.104l-5.976 8.832zM286.857 34.567v-14.52l.888.888h-6.24v-3.168h14.568v3.168h-6.24l.864-.888v14.52h-3.84z"/><path fill-rule="evenodd" clip-rule="evenodd" d="M13.14.127a.303.303 0 01.463.256v36.343a3.184 3.184 0 001.376 2.621l2.616 1.804a2.39 2.39 0 011.032 1.966v1.207a.6.6 0 01-.927.504L6.44 37.544a3.086 3.086 0 01-1.41-2.591V9.687a.605.605 0 00-.927-.512l-2.43 1.527a.605.605 0 01-.928-.512V9.178a2.283 2.283 0 011.068-1.933L13.14.127zM31.382 10.19a.605.605 0 01-.927.513l-2.431-1.528a.605.605 0 00-.927.512v28.724a2.95 2.95 0 001.457 2.545l.353.207A2.214 2.214 0 0130 43.072v1.248a.607.607 0 01-.927.516l-9.119-5.672a3.03 3.03 0 01-1.429-2.572V.383a.303.303 0 01.464-.256l11.325 7.118a2.283 2.283 0 011.068 1.933v1.012z"/></svg><svg viewBox="0 0 28 25" id="telephone" xmlns="http://www.w3.org/2000/svg"><path d="M26.334 3.372l.564 1.141a4.178 4.178 0 01-1.433 5.325l-2.23 1.485a4.178 4.178 0 01-4.862-.165l-2.084-1.603a.38.38 0 00-.284-.075c-.567.079-1.522.623-2.77 1.65-.922.758-1.561 1.416-1.913 1.945a3.104 3.104 0 00-.241.427l-.06.143.022.062 1.228 2.47a4.178 4.178 0 01-.77 4.801l-1.877 1.893a4.178 4.178 0 01-5.488.394l-1.018-.77a5.697 5.697 0 01-2.199-5.373c.566-3.856 3.194-7.668 7.811-11.467C13.356 1.849 17.608.006 21.506.199a5.697 5.697 0 014.667 2.869l.161.304zm-2.169.773a3.418 3.418 0 00-2.772-1.671c-3.245-.16-6.99 1.463-11.215 4.94-4.221 3.473-6.533 6.83-7.007 10.039a3.418 3.418 0 001.32 3.222l1.019.77a1.899 1.899 0 002.494-.177l1.877-1.894a1.899 1.899 0 00.35-2.18L8.97 14.65l-.081-.2c-.523-1.535.544-3.144 2.897-5.08 1.546-1.272 2.815-1.994 3.9-2.146.707-.1 1.426.09 1.992.525l2.083 1.6a1.9 1.9 0 002.21.077l2.23-1.485a1.899 1.899 0 00.65-2.42L24.29 4.38l-.125-.234z"/></svg></svg>